<svg xmlns="http://www.w3.org/2000/svg" xmlns:xlink="http://www.w3.org/1999/xlink" width="1600" zoomAndPan="magnify" viewBox="0 0 1200 675.000002" height="900" preserveAspectRatio="xMidYMid meet" version="1.0"><defs><clipPath id="d259649b87"><path d="M 268.140625 314.074219 L 287.425781 314.074219 L 287.425781 433.933594 L 268.140625 433.933594 Z M 268.140625 314.074219 " clip-rule="nonzero"/></clipPath><clipPath id="c113564c6e"><path d="M 271.886719 314.074219 L 283.683594 314.074219 C 285.75 314.074219 287.425781 315.75 287.425781 317.816406 L 287.425781 430.160156 C 287.425781 432.226562 285.75 433.902344 283.683594 433.902344 L 271.886719 433.902344 C 269.816406 433.902344 268.140625 432.226562 268.140625 430.160156 L 268.140625 317.816406 C 268.140625 315.75 269.816406 314.074219 271.886719 314.074219 Z M 271.886719 314.074219 " clip-rule="nonzero"/></clipPath><clipPath id="29daca88ff"><path d="M 0.140625 0.0742188 L 19.425781 0.0742188 L 19.425781 119.933594 L 0.140625 119.933594 Z M 0.140625 0.0742188 " clip-rule="nonzero"/></clipPath><clipPath id="abe3cbcb1f"><path d="M 3.886719 0.0742188 L 15.683594 0.0742188 C 17.75 0.0742188 19.425781 1.75 19.425781 3.816406 L 19.425781 116.160156 C 19.425781 118.226562 17.75 119.902344 15.683594 119.902344 L 3.886719 119.902344 C 1.816406 119.902344 0.140625 118.226562 0.140625 116.160156 L 0.140625 3.816406 C 0.140625 1.75 1.816406 0.0742188 3.886719 0.0742188 Z M 3.886719 0.0742188 " clip-rule="nonzero"/></clipPath><clipPath id="5b5a7be94f"><rect x="0" width="20" y="0" height="120"/></clipPath><clipPath id="113afda6d6"><path d="M 247.074219 328.183594 L 268.140625 328.183594 L 268.140625 440.84375 L 247.074219 440.84375 Z M 247.074219 328.183594 " clip-rule="nonzero"/></clipPath><clipPath id="b30ae2e17b"><path d="M 250.816406 328.183594 L 264.398438 328.183594 C 266.464844 328.183594 268.140625 329.859375 268.140625 331.929688 L 268.140625 437.019531 C 268.140625 439.089844 266.464844 440.765625 264.398438 440.765625 L 250.816406 440.765625 C 248.75 440.765625 247.074219 439.089844 247.074219 437.019531 L 247.074219 331.929688 C 247.074219 329.859375 248.75 328.183594 250.816406 328.183594 Z M 250.816406 328.183594 " clip-rule="nonzero"/></clipPath><clipPath id="250ddc74d5"><path d="M 0.0742188 0.183594 L 21.140625 0.183594 L 21.140625 112.84375 L 0.0742188 112.84375 Z M 0.0742188 0.183594 " clip-rule="nonzero"/></clipPath><clipPath id="7e517fd526"><path d="M 3.816406 0.183594 L 17.398438 0.183594 C 19.464844 0.183594 21.140625 1.859375 21.140625 3.929688 L 21.140625 109.019531 C 21.140625 111.089844 19.464844 112.765625 17.398438 112.765625 L 3.816406 112.765625 C 1.75 112.765625 0.0742188 111.089844 0.0742188 109.019531 L 0.0742188 3.929688 C 0.0742188 1.859375 1.75 0.183594 3.816406 0.183594 Z M 3.816406 0.183594 " clip-rule="nonzero"/></clipPath><clipPath id="d695d9f57e"><rect x="0" width="22" y="0" height="113"/></clipPath><clipPath id="b1423037a4"><path d="M 44.042969 431.535156 L 319 431.535156 L 319 446.511719 L 44.042969 446.511719 Z M 44.042969 431.535156 " clip-rule="nonzero"/></clipPath><clipPath id="ebd4119900"><path d="M 48.535156 431.535156 L 314.507812 431.535156 C 315.699219 431.535156 316.839844 432.007812 317.683594 432.851562 C 318.527344 433.691406 319 434.835938 319 436.027344 L 319 442.019531 C 319 443.210938 318.527344 444.351562 317.683594 445.195312 C 316.839844 446.039062 315.699219 446.511719 314.507812 446.511719 L 48.535156 446.511719 C 47.34375 446.511719 46.203125 446.039062 45.359375 445.195312 C 44.515625 444.351562 44.042969 443.210938 44.042969 442.019531 L 44.042969 436.027344 C 44.042969 434.835938 44.515625 433.691406 45.359375 432.851562 C 46.203125 432.007812 47.34375 431.535156 48.535156 431.535156 Z M 48.535156 431.535156 " clip-rule="nonzero"/></clipPath><clipPath id="23ea451caf"><path d="M 0.0429688 0.535156 L 275 0.535156 L 275 15.511719 L 0.0429688 15.511719 Z M 0.0429688 0.535156 " clip-rule="nonzero"/></clipPath><clipPath id="e3f872e594"><path d="M 4.535156 0.535156 L 270.507812 0.535156 C 271.699219 0.535156 272.839844 1.007812 273.683594 1.851562 C 274.527344 2.691406 275 3.835938 275 5.027344 L 275 11.019531 C 275 12.210938 274.527344 13.351562 273.683594 14.195312 C 272.839844 15.039062 271.699219 15.511719 270.507812 15.511719 L 4.535156 15.511719 C 3.34375 15.511719 2.203125 15.039062 1.359375 14.195312 C 0.515625 13.351562 0.0429688 12.210938 0.0429688 11.019531 L 0.0429688 5.027344 C 0.0429688 3.835938 0.515625 2.691406 1.359375 1.851562 C 2.203125 1.007812 3.34375 0.535156 4.535156 0.535156 Z M 4.535156 0.535156 " clip-rule="nonzero"/></clipPath><clipPath id="0877264fdf"><rect x="0" width="275" y="0" height="16"/></clipPath><clipPath id="ebbc10a411"><path d="M 170.277344 415.152344 L 247.167969 415.152344 L 247.167969 431.597656 L 170.277344 431.597656 Z M 170.277344 415.152344 " clip-rule="nonzero"/></clipPath><clipPath id="25aac0c349"><path d="M 247.167969 418.898438 L 247.167969 427.851562 C 247.167969 429.921875 245.492188 431.597656 243.425781 431.597656 L 174.042969 431.597656 C 171.976562 431.597656 170.300781 429.921875 170.300781 427.851562 L 170.300781 418.898438 C 170.300781 416.828125 171.976562 415.152344 174.042969 415.152344 L 243.425781 415.152344 C 245.492188 415.152344 247.167969 416.828125 247.167969 418.898438 Z M 247.167969 418.898438 " clip-rule="nonzero"/></clipPath><clipPath id="1a66bd6de1"><path d="M 0.277344 0.152344 L 77.167969 0.152344 L 77.167969 16.597656 L 0.277344 16.597656 Z M 0.277344 0.152344 " clip-rule="nonzero"/></clipPath><clipPath id="ab24fe17e1"><path d="M 77.167969 3.898438 L 77.167969 12.851562 C 77.167969 14.921875 75.492188 16.597656 73.425781 16.597656 L 4.042969 16.597656 C 1.976562 16.597656 0.300781 14.921875 0.300781 12.851562 L 0.300781 3.898438 C 0.300781 1.828125 1.976562 0.152344 4.042969 0.152344 L 73.425781 0.152344 C 75.492188 0.152344 77.167969 1.828125 77.167969 3.898438 Z M 77.167969 3.898438 " clip-rule="nonzero"/></clipPath><clipPath id="13c4d39156"><rect x="0" width="78" y="0" height="17"/></clipPath><clipPath id="4df087daa9"><path d="M 180 402.609375 L 247.0625 402.609375 L 247.0625 415.152344 L 180 415.152344 Z M 180 402.609375 " clip-rule="nonzero"/></clipPath><clipPath id="833f62d5af"><path d="M 247.0625 406.355469 L 247.0625 411.410156 C 247.0625 413.476562 245.386719 415.152344 243.320312 415.152344 L 183.773438 415.152344 C 181.703125 415.152344 180.027344 413.476562 180.027344 411.410156 L 180.027344 406.355469 C 180.027344 404.289062 181.703125 402.609375 183.773438 402.609375 L 243.320312 402.609375 C 245.386719 402.609375 247.0625 404.289062 247.0625 406.355469 Z M 247.0625 406.355469 " clip-rule="nonzero"/></clipPath><clipPath id="f51031f670"><path d="M 0 0.609375 L 67.0625 0.609375 L 67.0625 13.152344 L 0 13.152344 Z M 0 0.609375 " clip-rule="nonzero"/></clipPath><clipPath id="deebb6ba1d"><path d="M 67.0625 4.355469 L 67.0625 9.410156 C 67.0625 11.476562 65.386719 13.152344 63.320312 13.152344 L 3.773438 13.152344 C 1.703125 13.152344 0.0273438 11.476562 0.0273438 9.410156 L 0.0273438 4.355469 C 0.0273438 2.289062 1.703125 0.609375 3.773438 0.609375 L 63.320312 0.609375 C 65.386719 0.609375 67.0625 2.289062 67.0625 4.355469 Z M 67.0625 4.355469 " clip-rule="nonzero"/></clipPath><clipPath id="bf62735a5e"><rect x="0" width="68" y="0" height="14"/></clipPath></defs><g clip-path="url(#d259649b87)"><g clip-path="url(#c113564c6e)"><g transform="matrix(1, 0, 0, 1, 268, 314)"><g clip-path="url(#5b5a7be94f)"><g clip-path="url(#29daca88ff)"><g clip-path="url(#abe3cbcb1f)"><path fill="#70cdcd" d="M 0.140625 0.0742188 L 19.425781 0.0742188 L 19.425781 119.933594 L 0.140625 119.933594 Z M 0.140625 0.0742188 " fill-opacity="1" fill-rule="nonzero"/></g></g></g></g></g></g><g clip-path="url(#113afda6d6)"><g clip-path="url(#b30ae2e17b)"><g transform="matrix(1, 0, 0, 1, 247, 328)"><g clip-path="url(#d695d9f57e)"><g clip-path="url(#250ddc74d5)"><g clip-path="url(#7e517fd526)"><path fill="#f4caef" d="M 0.0742188 0.183594 L 21.140625 0.183594 L 21.140625 112.761719 L 0.0742188 112.761719 Z M 0.0742188 0.183594 " fill-opacity="1" fill-rule="nonzero"/></g></g></g></g></g></g><g clip-path="url(#b1423037a4)"><g clip-path="url(#ebd4119900)"><g transform="matrix(1, 0, 0, 1, 44, 431)"><g clip-path="url(#0877264fdf)"><g clip-path="url(#23ea451caf)"><g clip-path="url(#e3f872e594)"><path fill="#ebcb95" d="M 0.0429688 0.535156 L 275.027344 0.535156 L 275.027344 15.511719 L 0.0429688 15.511719 Z M 0.0429688 0.535156 " fill-opacity="1" fill-rule="nonzero"/></g></g></g></g></g></g><path stroke-linecap="butt" transform="matrix(0.748891, 0, 0, 0.748891, 268.141025, 331.819594)" fill="none" stroke-linejoin="miter" d="M -0.000534376 1.998707 L 25.751102 1.998707 " stroke="#40bb79" stroke-width="4" stroke-opacity="1" stroke-miterlimit="4"/><path stroke-linecap="butt" transform="matrix(0.748891, 0.000000000000001653, -0.000000000000001653, 0.748891, 268.141025, 338.539483)" fill="none" stroke-linejoin="miter" d="M -0.000534376 2.002402 L 25.751102 2.002402 " stroke="#40bb79" stroke-width="4" stroke-opacity="1" stroke-miterlimit="4"/><path stroke-linecap="butt" transform="matrix(0.748891, 0, 0, 0.748891, 247.073623, 343.125267)" fill="none" stroke-linejoin="miter" d="M 0.000795015 2.002607 L 28.13095 2.002607 " stroke="#d288e6" stroke-width="4" stroke-opacity="1" stroke-miterlimit="4"/><path stroke-linecap="butt" transform="matrix(0.748859, -0.00683458, 0.00683458, 0.748859, 247.059964, 351.272026)" fill="none" stroke-linejoin="miter" d="M 0.000785034 1.999723 L 28.132102 2.00087 " stroke="#d288e6" stroke-width="4" stroke-opacity="1" stroke-miterlimit="4"/><g clip-path="url(#ebbc10a411)"><g clip-path="url(#25aac0c349)"><g transform="matrix(1, 0, 0, 1, 170, 415)"><g clip-path="url(#13c4d39156)"><g clip-path="url(#1a66bd6de1)"><g clip-path="url(#ab24fe17e1)"><path fill="#d288e6" d="M 77.167969 0.152344 L 77.167969 16.597656 L 0.277344 16.597656 L 0.277344 0.152344 Z M 77.167969 0.152344 " fill-opacity="1" fill-rule="nonzero"/></g></g></g></g></g></g><g clip-path="url(#4df087daa9)"><g clip-path="url(#833f62d5af)"><g transform="matrix(1, 0, 0, 1, 180, 402)"><g clip-path="url(#bf62735a5e)"><g clip-path="url(#f51031f670)"><g clip-path="url(#deebb6ba1d)"><path fill="#00aab2" d="M 67.0625 0.609375 L 67.0625 13.152344 L 0.0390625 13.152344 L 0.0390625 0.609375 Z M 67.0625 0.609375 " fill-opacity="1" fill-rule="nonzero"/></g></g></g></g></g></g><path stroke-linecap="butt" transform="matrix(0.00000000130706, 0.748891, -0.748891, 0.00000000130706, 233.759843, 402.615968)" fill="none" stroke-linejoin="miter" d="M 0.00162801 2.000459 L 16.750363 2.000459 " stroke="#40bb79" stroke-width="4" stroke-opacity="1" stroke-miterlimit="4"/></svg>