<svg xmlns="http://www.w3.org/2000/svg" xmlns:xlink="http://www.w3.org/1999/xlink" width="1600" zoomAndPan="magnify" viewBox="0 0 1200 675.000002" height="900" preserveAspectRatio="xMidYMid meet" version="1.0"><defs><clipPath id="56796d7789"><path d="M 132.050781 613.875 L 890.78125 613.875 L 890.78125 658.375 L 132.050781 658.375 Z M 132.050781 613.875 " clip-rule="nonzero"/></clipPath><clipPath id="ce06b2a884"><path d="M 141.035156 613.875 L 881.761719 613.875 C 884.144531 613.875 886.429688 614.824219 888.117188 616.507812 C 889.800781 618.191406 890.75 620.480469 890.75 622.863281 L 890.75 649.386719 C 890.75 651.769531 889.800781 654.054688 888.117188 655.742188 C 886.429688 657.425781 884.144531 658.375 881.761719 658.375 L 141.035156 658.375 C 138.652344 658.375 136.367188 657.425781 134.679688 655.742188 C 132.996094 654.054688 132.050781 651.769531 132.050781 649.386719 L 132.050781 622.863281 C 132.050781 620.480469 132.996094 618.191406 134.679688 616.507812 C 136.367188 614.824219 138.652344 613.875 141.035156 613.875 Z M 141.035156 613.875 " clip-rule="nonzero"/></clipPath><clipPath id="6af23e3bea"><path d="M 0.0507812 0.875 L 758.78125 0.875 L 758.78125 45.375 L 0.0507812 45.375 Z M 0.0507812 0.875 " clip-rule="nonzero"/></clipPath><clipPath id="e019b12def"><path d="M 9.035156 0.875 L 749.761719 0.875 C 752.144531 0.875 754.429688 1.824219 756.117188 3.507812 C 757.800781 5.191406 758.75 7.480469 758.75 9.863281 L 758.75 36.386719 C 758.75 38.769531 757.800781 41.054688 756.117188 42.742188 C 754.429688 44.425781 752.144531 45.375 749.761719 45.375 L 9.035156 45.375 C 6.652344 45.375 4.367188 44.425781 2.679688 42.742188 C 0.996094 41.054688 0.0507812 38.769531 0.0507812 36.386719 L 0.0507812 9.863281 C 0.0507812 7.480469 0.996094 5.191406 2.679688 3.507812 C 4.367188 1.824219 6.652344 0.875 9.035156 0.875 Z M 9.035156 0.875 " clip-rule="nonzero"/></clipPath><clipPath id="133eb72f22"><rect x="0" width="759" y="0" height="46"/></clipPath><clipPath id="1eb62c498b"><path d="M 711.464844 624.25 L 759.515625 624.25 L 759.515625 643.804688 L 711.464844 643.804688 Z M 711.464844 624.25 " clip-rule="nonzero"/></clipPath><clipPath id="0c1134dada"><path d="M 759.488281 643.804688 C 759.488281 633.152344 748.554688 624.25 735.476562 624.25 C 722.398438 624.25 711.464844 633.152344 711.464844 643.804688 Z M 759.488281 643.804688 " clip-rule="nonzero"/></clipPath><clipPath id="3563b6e2dc"><path d="M 0.464844 0.25 L 48.515625 0.25 L 48.515625 19.804688 L 0.464844 19.804688 Z M 0.464844 0.25 " clip-rule="nonzero"/></clipPath><clipPath id="7eea9185ee"><path d="M 48.488281 19.804688 C 48.488281 9.152344 37.554688 0.25 24.476562 0.25 C 11.398438 0.25 0.464844 9.152344 0.464844 19.804688 Z M 48.488281 19.804688 " clip-rule="nonzero"/></clipPath><clipPath id="ccd375a970"><rect x="0" width="49" y="0" height="20"/></clipPath><clipPath id="a1cf7d0fbc"><path d="M 733.605469 624.25 L 737.351562 624.25 L 737.351562 628.453125 L 733.605469 628.453125 Z M 733.605469 624.25 " clip-rule="nonzero"/></clipPath><clipPath id="37976de9a0"><path d="M 0.605469 0.25 L 4.351562 0.25 L 4.351562 4.453125 L 0.605469 4.453125 Z M 0.605469 0.25 " clip-rule="nonzero"/></clipPath><clipPath id="3bbee5fcbf"><rect x="0" width="5" y="0" height="5"/></clipPath><clipPath id="9fb6982944"><path d="M 241 581 L 309 581 L 309 617 L 241 617 Z M 241 581 " clip-rule="nonzero"/></clipPath><clipPath id="00adfa76ba"><path d="M 244.535156 577.027344 L 310.917969 588.679688 L 305.09375 621.875 L 238.707031 610.222656 Z M 244.535156 577.027344 " clip-rule="nonzero"/></clipPath><clipPath id="893755f71d"><path d="M 244.539062 577.03125 L 312.984375 589.042969 L 306.976562 623.265625 L 238.53125 611.253906 Z M 244.539062 577.03125 " clip-rule="nonzero"/></clipPath><clipPath id="2c2b141ffc"><path d="M 277.808594 582.867188 C 259.433594 579.644531 243.238281 584.429688 241.636719 593.558594 C 240.035156 602.683594 253.632812 612.699219 272.007812 615.921875 C 290.378906 619.148438 306.574219 614.363281 308.175781 605.234375 C 309.777344 596.109375 296.183594 586.09375 277.808594 582.867188 Z M 277.808594 582.867188 " clip-rule="nonzero"/></clipPath><clipPath id="fec14b891f"><path d="M 260.285156 579.796875 L 316.835938 579.796875 L 316.835938 634.019531 L 260.285156 634.019531 Z M 260.285156 579.796875 " clip-rule="nonzero"/></clipPath><clipPath id="83af65d48f"><path d="M 260.457031 579.796875 C 260.457031 609.332031 273.292969 634.019531 288.644531 634.019531 C 304 634.019531 316.835938 609.332031 316.835938 579.796875 Z M 260.457031 579.796875 " clip-rule="nonzero"/></clipPath><clipPath id="324afa9330"><path d="M 0.421875 0.796875 L 56.835938 0.796875 L 56.835938 55.019531 L 0.421875 55.019531 Z M 0.421875 0.796875 " clip-rule="nonzero"/></clipPath><clipPath id="743b1655a6"><path d="M 0.457031 0.796875 C 0.457031 30.332031 13.292969 55.019531 28.644531 55.019531 C 44 55.019531 56.835938 30.332031 56.835938 0.796875 Z M 0.457031 0.796875 " clip-rule="nonzero"/></clipPath><clipPath id="4e555570fe"><rect x="0" width="57" y="0" height="56"/></clipPath></defs><g clip-path="url(#56796d7789)"><g clip-path="url(#ce06b2a884)"><g transform="matrix(1, 0, 0, 1, 132, 613)"><g clip-path="url(#133eb72f22)"><g clip-path="url(#6af23e3bea)"><g clip-path="url(#e019b12def)"><path fill="#ebcb95" d="M 0.0507812 0.875 L 758.78125 0.875 L 758.78125 45.375 L 0.0507812 45.375 Z M 0.0507812 0.875 " fill-opacity="1" fill-rule="nonzero"/></g></g></g></g></g></g><g clip-path="url(#1eb62c498b)"><g clip-path="url(#0c1134dada)"><g transform="matrix(1, 0, 0, 1, 711, 624)"><g clip-path="url(#ccd375a970)"><g clip-path="url(#3563b6e2dc)"><g clip-path="url(#7eea9185ee)"><path fill="#414040" d="M 0.464844 0.25 L 48.515625 0.25 L 48.515625 19.804688 L 0.464844 19.804688 Z M 0.464844 0.25 " fill-opacity="1" fill-rule="nonzero"/></g></g></g></g></g></g><g clip-path="url(#a1cf7d0fbc)"><g transform="matrix(1, 0, 0, 1, 733, 624)"><g clip-path="url(#3bbee5fcbf)"><g clip-path="url(#37976de9a0)"><path fill="#ffffff" d="M 0.605469 0.25 L 4.351562 0.25 L 4.351562 4.460938 L 0.605469 4.460938 Z M 0.605469 0.25 " fill-opacity="1" fill-rule="nonzero"/></g></g></g></g><g clip-path="url(#9fb6982944)"><g clip-path="url(#00adfa76ba)"><g clip-path="url(#893755f71d)"><g clip-path="url(#2c2b141ffc)"><path stroke-linecap="butt" transform="matrix(0.737615, 0.129463, -0.129463, 0.737615, 244.538367, 577.029739)" fill="none" stroke-linejoin="miter" d="M 45.10466 -0.00264056 C 20.193864 0.000581487 -0.00167835 10.032556 -0.000749278 22.408636 C -0.000721921 34.77958 20.194975 44.813298 45.105771 44.810076 C 70.01233 44.812894 90.207873 34.78092 90.206944 22.404839 C 90.206917 10.033896 70.016357 -0.000725098 45.10466 -0.00264056 Z M 45.10466 -0.00264056 " stroke="#b171c2" stroke-width="20" stroke-opacity="1" stroke-miterlimit="4"/></g></g></g></g><g clip-path="url(#fec14b891f)"><g clip-path="url(#83af65d48f)"><g transform="matrix(1, 0, 0, 1, 260, 579)"><g clip-path="url(#4e555570fe)"><g clip-path="url(#324afa9330)"><g clip-path="url(#743b1655a6)"><path fill="#d288e6" d="M 56.835938 55.019531 L 0.496094 55.019531 L 0.496094 0.796875 L 56.835938 0.796875 Z M 56.835938 55.019531 " fill-opacity="1" fill-rule="nonzero"/></g></g></g></g></g></g></svg>