<svg xmlns="http://www.w3.org/2000/svg" xmlns:xlink="http://www.w3.org/1999/xlink" width="1600" zoomAndPan="magnify" viewBox="0 0 1200 675.000002" height="900" preserveAspectRatio="xMidYMid meet" version="1.0"><defs><filter x="0%" y="0%" width="100%" height="100%" id="4623c3e484"><feColorMatrix values="0 0 0 0 1 0 0 0 0 1 0 0 0 0 1 0 0 0 1 0" color-interpolation-filters="sRGB"/></filter><mask id="af15155900"><g filter="url(#4623c3e484)"><rect x="-120" width="1440" fill="#000000" y="-67.5" height="810.000002" fill-opacity="0.21"/></g></mask><clipPath id="062c4cb52f"><path d="M 0.300781 0.859375 L 588 0.859375 L 588 545.125 L 0.300781 545.125 Z M 0.300781 0.859375 " clip-rule="nonzero"/></clipPath><clipPath id="357c098c05"><path d="M 294.042969 0.859375 L 587.78125 545.125 L 0.300781 545.125 Z M 294.042969 0.859375 " clip-rule="nonzero"/></clipPath><clipPath id="f665f06887"><path d="M 0.300781 0.859375 L 587.925781 0.859375 L 587.925781 545.125 L 0.300781 545.125 Z M 0.300781 0.859375 " clip-rule="nonzero"/></clipPath><clipPath id="dbcee73a85"><path d="M 294.042969 0.859375 L 587.78125 545.125 L 0.300781 545.125 Z M 294.042969 0.859375 " clip-rule="nonzero"/></clipPath><clipPath id="d392d2e1eb"><rect x="0" width="588" y="0" height="546"/></clipPath><clipPath id="36f3d42079"><rect x="0" width="590" y="0" height="546"/></clipPath><clipPath id="bc1da59289"><path d="M 441.007812 167.890625 L 487.160156 167.890625 L 487.160156 212.308594 L 441.007812 212.308594 Z M 441.007812 167.890625 " clip-rule="nonzero"/></clipPath><clipPath id="5f03f73690"><path d="M 464.058594 167.890625 C 451.328125 167.890625 441.007812 177.835938 441.007812 190.101562 C 441.007812 202.367188 451.328125 212.308594 464.058594 212.308594 C 476.789062 212.308594 487.105469 202.367188 487.105469 190.101562 C 487.105469 177.835938 476.789062 167.890625 464.058594 167.890625 Z M 464.058594 167.890625 " clip-rule="nonzero"/></clipPath><clipPath id="a4affdd8eb"><path d="M 0.0078125 0.890625 L 46.128906 0.890625 L 46.128906 45.308594 L 0.0078125 45.308594 Z M 0.0078125 0.890625 " clip-rule="nonzero"/></clipPath><clipPath id="1dfc4dbf4c"><path d="M 23.058594 0.890625 C 10.328125 0.890625 0.0078125 10.835938 0.0078125 23.101562 C 0.0078125 35.367188 10.328125 45.308594 23.058594 45.308594 C 35.789062 45.308594 46.105469 35.367188 46.105469 23.101562 C 46.105469 10.835938 35.789062 0.890625 23.058594 0.890625 Z M 23.058594 0.890625 " clip-rule="nonzero"/></clipPath><clipPath id="2bbfdc0cfb"><rect x="0" width="47" y="0" height="46"/></clipPath><clipPath id="6ab601b6b2"><path d="M 405.535156 112.226562 L 522.339844 112.226562 L 522.339844 177.089844 L 405.535156 177.089844 Z M 405.535156 112.226562 " clip-rule="nonzero"/></clipPath><clipPath id="7de2782c96"><path d="M 522.328125 177.089844 C 522.328125 141.757812 495.796875 112.226562 464.058594 112.226562 C 432.320312 112.226562 405.789062 141.757812 405.789062 177.089844 Z M 522.328125 177.089844 " clip-rule="nonzero"/></clipPath><clipPath id="bcd767ff7b"><path d="M 0.648438 0.226562 L 117.339844 0.226562 L 117.339844 65.089844 L 0.648438 65.089844 Z M 0.648438 0.226562 " clip-rule="nonzero"/></clipPath><clipPath id="393de1dc96"><path d="M 117.328125 65.089844 C 117.328125 29.757812 90.796875 0.226562 59.058594 0.226562 C 27.320312 0.226562 0.789062 29.757812 0.789062 65.089844 Z M 117.328125 65.089844 " clip-rule="nonzero"/></clipPath><clipPath id="c1121a5368"><rect x="0" width="118" y="0" height="66"/></clipPath><clipPath id="7cd41b25ea"><path d="M 399.960938 175.25 L 528.796875 175.25 L 528.796875 190.101562 L 399.960938 190.101562 Z M 399.960938 175.25 " clip-rule="nonzero"/></clipPath><clipPath id="6017a459bd"><path d="M 401.457031 175.25 L 527.246094 175.25 C 528.074219 175.25 528.746094 175.921875 528.746094 176.75 L 528.746094 188.601562 C 528.746094 189.429688 528.074219 190.101562 527.246094 190.101562 L 401.457031 190.101562 C 400.628906 190.101562 399.960938 189.429688 399.960938 188.601562 L 399.960938 176.75 C 399.960938 175.921875 400.628906 175.25 401.457031 175.25 Z M 401.457031 175.25 " clip-rule="nonzero"/></clipPath><clipPath id="f58a9bc4ed"><path d="M 0.960938 0.25 L 129.796875 0.25 L 129.796875 15.101562 L 0.960938 15.101562 Z M 0.960938 0.25 " clip-rule="nonzero"/></clipPath><clipPath id="1dff4fdb98"><path d="M 2.457031 0.25 L 128.246094 0.25 C 129.074219 0.25 129.746094 0.921875 129.746094 1.75 L 129.746094 13.601562 C 129.746094 14.429688 129.074219 15.101562 128.246094 15.101562 L 2.457031 15.101562 C 1.628906 15.101562 0.960938 14.429688 0.960938 13.601562 L 0.960938 1.75 C 0.960938 0.921875 1.628906 0.25 2.457031 0.25 Z M 2.457031 0.25 " clip-rule="nonzero"/></clipPath><clipPath id="0fa287f0e6"><rect x="0" width="130" y="0" height="16"/></clipPath><clipPath id="55ca36290d"><path d="M 459.613281 62.089844 L 468.503906 62.089844 L 468.503906 74.015625 L 459.613281 74.015625 Z M 459.613281 62.089844 " clip-rule="nonzero"/></clipPath><clipPath id="d402933503"><path d="M 0.613281 0.0898438 L 9.503906 0.0898438 L 9.503906 12 L 0.613281 12 Z M 0.613281 0.0898438 " clip-rule="nonzero"/></clipPath><clipPath id="b2eb903c11"><rect x="0" width="10" y="0" height="13"/></clipPath><clipPath id="e45126e358"><path d="M 437.964844 70.367188 L 490.160156 70.367188 L 490.160156 119.3125 L 437.964844 119.3125 Z M 437.964844 70.367188 " clip-rule="nonzero"/></clipPath><clipPath id="88c6be72e3"><path d="M 490.148438 119.3125 C 490.148438 92.652344 478.269531 70.367188 464.058594 70.367188 C 449.84375 70.367188 437.964844 92.652344 437.964844 119.3125 Z M 490.148438 119.3125 " clip-rule="nonzero"/></clipPath><clipPath id="e804b7ee91"><path d="M 0.964844 0.367188 L 53.160156 0.367188 L 53.160156 49.3125 L 0.964844 49.3125 Z M 0.964844 0.367188 " clip-rule="nonzero"/></clipPath><clipPath id="6fd01697ed"><path d="M 53.148438 49.3125 C 53.148438 22.652344 41.269531 0.367188 27.058594 0.367188 C 12.84375 0.367188 0.964844 22.652344 0.964844 49.3125 Z M 53.148438 49.3125 " clip-rule="nonzero"/></clipPath><clipPath id="969b8d5f6c"><rect x="0" width="54" y="0" height="50"/></clipPath><clipPath id="748b5a40cd"><path d="M 462.480469 1.777344 L 466.222656 1.777344 L 466.222656 63.183594 L 462.480469 63.183594 Z M 462.480469 1.777344 " clip-rule="nonzero"/></clipPath><clipPath id="2176c8cac1"><path d="M 0.480469 0.777344 L 4.222656 0.777344 L 4.222656 62.183594 L 0.480469 62.183594 Z M 0.480469 0.777344 " clip-rule="nonzero"/></clipPath><clipPath id="aad9ac7241"><rect x="0" width="5" y="0" height="63"/></clipPath></defs><g mask="url(#af15155900)"><g transform="matrix(1, 0, 0, 1, 170, 91)"><g clip-path="url(#36f3d42079)"><g clip-path="url(#062c4cb52f)"><g clip-path="url(#357c098c05)"><g transform="matrix(1, 0, 0, 1, -0.000000000000028422, -0.000000000000014211)"><g clip-path="url(#d392d2e1eb)"><g clip-path="url(#f665f06887)"><g clip-path="url(#dbcee73a85)"><path fill="#fff0b0" d="M 0.300781 0.859375 L 587.089844 0.859375 L 587.089844 545.125 L 0.300781 545.125 Z M 0.300781 0.859375 " fill-opacity="1" fill-rule="nonzero"/></g></g></g></g></g></g></g></g></g><g clip-path="url(#bc1da59289)"><g clip-path="url(#5f03f73690)"><g transform="matrix(1, 0, 0, 1, 441, 167)"><g clip-path="url(#2bbfdc0cfb)"><g clip-path="url(#a4affdd8eb)"><g clip-path="url(#1dfc4dbf4c)"><path fill="#ffea96" d="M 0.0078125 0.890625 L 46.160156 0.890625 L 46.160156 45.308594 L 0.0078125 45.308594 Z M 0.0078125 0.890625 " fill-opacity="1" fill-rule="nonzero"/></g></g></g></g></g></g><g clip-path="url(#6ab601b6b2)"><g clip-path="url(#7de2782c96)"><g transform="matrix(1, 0, 0, 1, 405, 112)"><g clip-path="url(#c1121a5368)"><g clip-path="url(#bcd767ff7b)"><g clip-path="url(#393de1dc96)"><path fill="#e2a9f1" d="M 0.789062 0.226562 L 117.339844 0.226562 L 117.339844 65.089844 L 0.789062 65.089844 Z M 0.789062 0.226562 " fill-opacity="1" fill-rule="nonzero"/></g></g></g></g></g></g><g clip-path="url(#7cd41b25ea)"><g clip-path="url(#6017a459bd)"><g transform="matrix(1, 0, 0, 1, 399, 175)"><g clip-path="url(#0fa287f0e6)"><g clip-path="url(#f58a9bc4ed)"><g clip-path="url(#1dff4fdb98)"><path fill="#d288e6" d="M 0.960938 0.25 L 129.738281 0.25 L 129.738281 15.101562 L 0.960938 15.101562 Z M 0.960938 0.25 " fill-opacity="1" fill-rule="nonzero"/></g></g></g></g></g></g><g clip-path="url(#55ca36290d)"><g transform="matrix(1, 0, 0, 1, 459, 62)"><g clip-path="url(#b2eb903c11)"><g clip-path="url(#d402933503)"><path fill="#e2a9f1" d="M 0.613281 0.0898438 L 9.503906 0.0898438 L 9.503906 12 L 0.613281 12 Z M 0.613281 0.0898438 " fill-opacity="1" fill-rule="nonzero"/></g></g></g></g><g clip-path="url(#e45126e358)"><g clip-path="url(#88c6be72e3)"><g transform="matrix(1, 0, 0, 1, 437, 70)"><g clip-path="url(#969b8d5f6c)"><g clip-path="url(#e804b7ee91)"><g clip-path="url(#6fd01697ed)"><path fill="#d288e6" d="M 0.964844 0.367188 L 53.160156 0.367188 L 53.160156 49.3125 L 0.964844 49.3125 Z M 0.964844 0.367188 " fill-opacity="1" fill-rule="nonzero"/></g></g></g></g></g></g><g clip-path="url(#748b5a40cd)"><g transform="matrix(1, 0, 0, 1, 462, 1)"><g clip-path="url(#aad9ac7241)"><g clip-path="url(#2176c8cac1)"><path fill="#e2a9f1" d="M 0.480469 0.777344 L 4.222656 0.777344 L 4.222656 62.179688 L 0.480469 62.179688 Z M 0.480469 0.777344 " fill-opacity="1" fill-rule="nonzero"/></g></g></g></g></svg>