<svg xmlns="http://www.w3.org/2000/svg" xmlns:xlink="http://www.w3.org/1999/xlink" width="1600" zoomAndPan="magnify" viewBox="0 0 1200 675.000002" height="900" preserveAspectRatio="xMidYMid meet" version="1.0"><defs><clipPath id="4d50aba7e3"><path d="M 569.839844 540.703125 L 612.65625 540.703125 L 612.65625 629.351562 L 569.839844 629.351562 Z M 569.839844 540.703125 " clip-rule="nonzero"/></clipPath><clipPath id="4698401aa3"><path d="M 0.839844 0.703125 L 43.65625 0.703125 L 43.65625 89.351562 L 0.839844 89.351562 Z M 0.839844 0.703125 " clip-rule="nonzero"/></clipPath><clipPath id="b817bbe343"><rect x="0" width="44" y="0" height="90"/></clipPath><clipPath id="d235bf904b"><path d="M 378.160156 329.640625 L 804.921875 329.640625 L 804.921875 592.261719 L 378.160156 592.261719 Z M 378.160156 329.640625 " clip-rule="nonzero"/></clipPath><clipPath id="bca17e86e4"><path d="M 393.140625 329.640625 L 789.359375 329.640625 C 793.332031 329.640625 797.140625 331.21875 799.949219 334.027344 C 802.757812 336.839844 804.335938 340.648438 804.335938 344.621094 L 804.335938 577.285156 C 804.335938 581.257812 802.757812 585.066406 799.949219 587.875 C 797.140625 590.683594 793.332031 592.261719 789.359375 592.261719 L 393.140625 592.261719 C 389.167969 592.261719 385.359375 590.683594 382.550781 587.875 C 379.738281 585.066406 378.160156 581.257812 378.160156 577.285156 L 378.160156 344.621094 C 378.160156 340.648438 379.738281 336.839844 382.550781 334.027344 C 385.359375 331.21875 389.167969 329.640625 393.140625 329.640625 Z M 393.140625 329.640625 " clip-rule="nonzero"/></clipPath><clipPath id="51d501bbbe"><path d="M 0.160156 0.640625 L 426 0.640625 L 426 263.261719 L 0.160156 263.261719 Z M 0.160156 0.640625 " clip-rule="nonzero"/></clipPath><clipPath id="5da4c41da9"><path d="M 15.140625 0.640625 L 411.359375 0.640625 C 415.332031 0.640625 419.140625 2.21875 421.949219 5.027344 C 424.757812 7.839844 426.335938 11.648438 426.335938 15.621094 L 426.335938 248.285156 C 426.335938 252.257812 424.757812 256.066406 421.949219 258.875 C 419.140625 261.683594 415.332031 263.261719 411.359375 263.261719 L 15.140625 263.261719 C 11.167969 263.261719 7.359375 261.683594 4.550781 258.875 C 1.738281 256.066406 0.160156 252.257812 0.160156 248.285156 L 0.160156 15.621094 C 0.160156 11.648438 1.738281 7.839844 4.550781 5.027344 C 7.359375 2.21875 11.167969 0.640625 15.140625 0.640625 Z M 15.140625 0.640625 " clip-rule="nonzero"/></clipPath><clipPath id="d1b772910e"><rect x="0" width="427" y="0" height="264"/></clipPath><clipPath id="5c8931f752"><path d="M 392.226562 342.144531 L 790.273438 342.144531 L 790.273438 564.136719 L 392.226562 564.136719 Z M 392.226562 342.144531 " clip-rule="nonzero"/></clipPath><clipPath id="b53184f1f2"><path d="M 0.226562 0.144531 L 398.273438 0.144531 L 398.273438 222.136719 L 0.226562 222.136719 Z M 0.226562 0.144531 " clip-rule="nonzero"/></clipPath><clipPath id="d316513d0a"><rect x="0" width="399" y="0" height="223"/></clipPath><clipPath id="6080ee926a"><path d="M 584 570.53125 L 598.496094 570.53125 L 598.496094 585.027344 L 584 585.027344 Z M 584 570.53125 " clip-rule="nonzero"/></clipPath><clipPath id="6c2f350459"><path d="M 591.25 570.53125 C 587.246094 570.53125 584 573.777344 584 577.78125 C 584 581.78125 587.246094 585.027344 591.25 585.027344 C 595.253906 585.027344 598.496094 581.78125 598.496094 577.78125 C 598.496094 573.777344 595.253906 570.53125 591.25 570.53125 Z M 591.25 570.53125 " clip-rule="nonzero"/></clipPath><clipPath id="eaf99adee9"><path d="M 0 0.53125 L 14.496094 0.53125 L 14.496094 15.027344 L 0 15.027344 Z M 0 0.53125 " clip-rule="nonzero"/></clipPath><clipPath id="25a6fd87a4"><path d="M 7.25 0.53125 C 3.246094 0.53125 0 3.777344 0 7.78125 C 0 11.78125 3.246094 15.027344 7.25 15.027344 C 11.253906 15.027344 14.496094 11.78125 14.496094 7.78125 C 14.496094 3.777344 11.253906 0.53125 7.25 0.53125 Z M 7.25 0.53125 " clip-rule="nonzero"/></clipPath><clipPath id="f0d6badca0"><rect x="0" width="15" y="0" height="16"/></clipPath><clipPath id="f83a157782"><path d="M 520.933594 619.746094 L 661.574219 619.746094 L 661.574219 629.351562 L 520.933594 629.351562 Z M 520.933594 619.746094 " clip-rule="nonzero"/></clipPath><clipPath id="5e6fb5cc5b"><path d="M 525.738281 619.746094 L 656.761719 619.746094 C 659.414062 619.746094 661.566406 621.894531 661.566406 624.550781 C 661.566406 627.203125 659.414062 629.351562 656.761719 629.351562 L 525.738281 629.351562 C 523.082031 629.351562 520.933594 627.203125 520.933594 624.550781 C 520.933594 621.894531 523.082031 619.746094 525.738281 619.746094 Z M 525.738281 619.746094 " clip-rule="nonzero"/></clipPath><clipPath id="44e6aae33e"><path d="M 0.933594 0.746094 L 141.574219 0.746094 L 141.574219 10.351562 L 0.933594 10.351562 Z M 0.933594 0.746094 " clip-rule="nonzero"/></clipPath><clipPath id="6e236e7d3b"><path d="M 5.738281 0.746094 L 136.761719 0.746094 C 139.414062 0.746094 141.566406 2.894531 141.566406 5.550781 C 141.566406 8.203125 139.414062 10.351562 136.761719 10.351562 L 5.738281 10.351562 C 3.082031 10.351562 0.933594 8.203125 0.933594 5.550781 C 0.933594 2.894531 3.082031 0.746094 5.738281 0.746094 Z M 5.738281 0.746094 " clip-rule="nonzero"/></clipPath><clipPath id="957f4754e0"><rect x="0" width="142" y="0" height="11"/></clipPath></defs><g clip-path="url(#4d50aba7e3)"><g transform="matrix(1, 0, 0, 1, 569, 540)"><g clip-path="url(#b817bbe343)"><g clip-path="url(#4698401aa3)"><path fill="#5b5a5a" d="M 0.839844 0.703125 L 43.65625 0.703125 L 43.65625 89.34375 L 0.839844 89.34375 Z M 0.839844 0.703125 " fill-opacity="1" fill-rule="nonzero"/></g></g></g></g><g clip-path="url(#d235bf904b)"><g clip-path="url(#bca17e86e4)"><g transform="matrix(1, 0, 0, 1, 378, 329)"><g clip-path="url(#d1b772910e)"><g clip-path="url(#51d501bbbe)"><g clip-path="url(#5da4c41da9)"><path fill="#414040" d="M 0.160156 0.640625 L 425.894531 0.640625 L 425.894531 263.261719 L 0.160156 263.261719 Z M 0.160156 0.640625 " fill-opacity="1" fill-rule="nonzero"/></g></g></g></g></g></g><g clip-path="url(#5c8931f752)"><g transform="matrix(1, 0, 0, 1, 392, 342)"><g clip-path="url(#d316513d0a)"><g clip-path="url(#b53184f1f2)"><path fill="#f7e8fa" d="M 0.226562 0.144531 L 398.253906 0.144531 L 398.253906 222.136719 L 0.226562 222.136719 Z M 0.226562 0.144531 " fill-opacity="1" fill-rule="nonzero"/></g></g></g></g><g clip-path="url(#6080ee926a)"><g clip-path="url(#6c2f350459)"><g transform="matrix(1, 0, 0, 1, 584, 570)"><g clip-path="url(#f0d6badca0)"><g clip-path="url(#eaf99adee9)"><g clip-path="url(#25a6fd87a4)"><path fill="#000000" d="M 0 0.53125 L 14.496094 0.53125 L 14.496094 15.027344 L 0 15.027344 Z M 0 0.53125 " fill-opacity="1" fill-rule="nonzero"/></g></g></g></g></g></g><g clip-path="url(#f83a157782)"><g clip-path="url(#5e6fb5cc5b)"><g transform="matrix(1, 0, 0, 1, 520, 619)"><g clip-path="url(#957f4754e0)"><g clip-path="url(#44e6aae33e)"><g clip-path="url(#6e236e7d3b)"><path fill="#414040" d="M 0.933594 0.746094 L 141.574219 0.746094 L 141.574219 10.351562 L 0.933594 10.351562 Z M 0.933594 0.746094 " fill-opacity="1" fill-rule="nonzero"/></g></g></g></g></g></g></svg>