<svg xmlns="http://www.w3.org/2000/svg" xmlns:xlink="http://www.w3.org/1999/xlink" width="1600" zoomAndPan="magnify" viewBox="0 0 1200 675.000002" height="900" preserveAspectRatio="xMidYMid meet" version="1.0"><defs><clipPath id="f2c9490971"><path d="M 107 339 L 134 339 L 134 388 L 107 388 Z M 107 339 " clip-rule="nonzero"/></clipPath><clipPath id="99cd371b33"><path d="M 117.78125 334.15625 L 144.679688 345.539062 L 124.25 393.816406 L 97.351562 382.433594 Z M 117.78125 334.15625 " clip-rule="nonzero"/></clipPath><clipPath id="e4e1b1a4a9"><path d="M 117.78125 334.15625 L 144.679688 345.539062 L 124.25 393.816406 L 97.351562 382.433594 Z M 117.78125 334.15625 " clip-rule="nonzero"/></clipPath><clipPath id="3397977a7e"><path d="M 61 340 L 90 340 L 90 386 L 61 386 Z M 61 340 " clip-rule="nonzero"/></clipPath><clipPath id="b450e69214"><path d="M 50.101562 347.5625 L 75.511719 333.167969 L 101.351562 378.78125 L 75.941406 393.175781 Z M 50.101562 347.5625 " clip-rule="nonzero"/></clipPath><clipPath id="9c0efed0fb"><path d="M 50.101562 347.5625 L 75.511719 333.167969 L 101.351562 378.78125 L 75.941406 393.175781 Z M 50.101562 347.5625 " clip-rule="nonzero"/></clipPath><clipPath id="63d730c64e"><path d="M 94 327 L 117 327 L 117 379 L 94 379 Z M 94 327 " clip-rule="nonzero"/></clipPath><clipPath id="f3e66001d4"><path d="M 96.476562 324.25 L 125.089844 330.089844 L 114.609375 381.453125 L 85.992188 375.613281 Z M 96.476562 324.25 " clip-rule="nonzero"/></clipPath><clipPath id="5079c130f3"><path d="M 96.476562 324.25 L 125.089844 330.089844 L 114.609375 381.453125 L 85.992188 375.613281 Z M 96.476562 324.25 " clip-rule="nonzero"/></clipPath></defs><g clip-path="url(#f2c9490971)"><g clip-path="url(#99cd371b33)"><g clip-path="url(#e4e1b1a4a9)"><path fill="#40bb79" d="M 110.703125 387.972656 C 103.027344 369.035156 112.15625 347.464844 131.089844 339.789062 C 138.765625 358.726562 129.636719 380.296875 110.703125 387.972656 Z M 110.703125 387.972656 " fill-opacity="1" fill-rule="nonzero"/></g></g></g><g clip-path="url(#3397977a7e)"><g clip-path="url(#b450e69214)"><g clip-path="url(#9c0efed0fb)"><path fill="#2f8959" d="M 88.464844 385.960938 C 68.773438 380.511719 57.226562 360.132812 62.675781 340.441406 C 82.367188 345.890625 93.914062 366.269531 88.464844 385.960938 Z M 88.464844 385.960938 " fill-opacity="1" fill-rule="nonzero"/></g></g></g><g clip-path="url(#63d730c64e)"><g clip-path="url(#f3e66001d4)"><g clip-path="url(#5079c130f3)"><path fill="#2f8959" d="M 100.175781 378.402344 C 88.90625 361.355469 93.589844 338.40625 110.636719 327.140625 C 121.902344 344.183594 117.21875 367.132812 100.175781 378.402344 Z M 100.175781 378.402344 " fill-opacity="1" fill-rule="nonzero"/></g></g></g></svg>