<svg xmlns="http://www.w3.org/2000/svg" xmlns:xlink="http://www.w3.org/1999/xlink" width="1600" zoomAndPan="magnify" viewBox="0 0 1200 675.000002" height="900" preserveAspectRatio="xMidYMid meet" version="1.0"><defs><clipPath id="450463f11b"><path d="M 75 333 L 99 333 L 99 385 L 75 385 Z M 75 333 " clip-rule="nonzero"/></clipPath><clipPath id="63616cc9e6"><path d="M 68.820312 335.394531 L 97.683594 330.917969 L 105.71875 382.71875 L 76.859375 387.195312 Z M 68.820312 335.394531 " clip-rule="nonzero"/></clipPath><clipPath id="3c17d12e24"><path d="M 68.820312 335.394531 L 97.683594 330.917969 L 105.71875 382.71875 L 76.859375 387.195312 Z M 68.820312 335.394531 " clip-rule="nonzero"/></clipPath><clipPath id="d7f5787ff9"><path d="M 95 344 L 122 344 L 122 393 L 95 393 Z M 95 344 " clip-rule="nonzero"/></clipPath><clipPath id="beb634e675"><path d="M 105.425781 338.539062 L 132.328125 349.917969 L 111.902344 398.199219 L 85.003906 386.820312 Z M 105.425781 338.539062 " clip-rule="nonzero"/></clipPath><clipPath id="52a30e78d1"><path d="M 105.425781 338.539062 L 132.328125 349.917969 L 111.902344 398.199219 L 85.003906 386.820312 Z M 105.425781 338.539062 " clip-rule="nonzero"/></clipPath><clipPath id="4a2874eb8c"><path d="M 77 348 L 102 348 L 102 399 L 77 399 Z M 77 348 " clip-rule="nonzero"/></clipPath><clipPath id="bedadabe06"><path d="M 68.820312 352.042969 L 97.050781 344.546875 L 110.507812 395.210938 L 82.28125 402.707031 Z M 68.820312 352.042969 " clip-rule="nonzero"/></clipPath><clipPath id="f7e676aef4"><path d="M 68.820312 352.042969 L 97.050781 344.546875 L 110.507812 395.210938 L 82.28125 402.707031 Z M 68.820312 352.042969 " clip-rule="nonzero"/></clipPath></defs><g clip-path="url(#450463f11b)"><g clip-path="url(#63616cc9e6)"><g clip-path="url(#3c17d12e24)"><path fill="#5bdf98" d="M 91.125 384.878906 C 74.632812 372.816406 71.042969 349.671875 83.101562 333.179688 C 99.59375 345.242188 103.183594 368.386719 91.125 384.878906 Z M 91.125 384.878906 " fill-opacity="1" fill-rule="nonzero"/></g></g></g><g clip-path="url(#d7f5787ff9)"><g clip-path="url(#beb634e675)"><g clip-path="url(#52a30e78d1)"><path fill="#5bdf98" d="M 98.355469 392.355469 C 90.679688 373.421875 99.804688 351.847656 118.738281 344.171875 C 126.414062 363.105469 117.289062 384.675781 98.355469 392.355469 Z M 98.355469 392.355469 " fill-opacity="1" fill-rule="nonzero"/></g></g></g><g clip-path="url(#4a2874eb8c)"><g clip-path="url(#bedadabe06)"><g clip-path="url(#f7e676aef4)"><path fill="#40bb79" d="M 96.222656 398.898438 L 96.21875 398.898438 C 78.546875 388.644531 72.535156 366.003906 82.789062 348.332031 C 100.460938 358.585938 106.476562 381.226562 96.222656 398.898438 Z M 96.222656 398.898438 " fill-opacity="1" fill-rule="nonzero"/></g></g></g></svg>