<svg xmlns="http://www.w3.org/2000/svg" xmlns:xlink="http://www.w3.org/1999/xlink" width="1600" zoomAndPan="magnify" viewBox="0 0 1200 675.000002" height="900" preserveAspectRatio="xMidYMid meet" version="1.0"><defs><g/><clipPath id="5a06edbb5e"><path d="M 481.582031 421.050781 L 696.367188 421.050781 L 696.367188 532.808594 L 481.582031 532.808594 Z M 481.582031 421.050781 " clip-rule="nonzero"/></clipPath><clipPath id="c89e20d42e"><path d="M 485.328125 421.050781 L 692.40625 421.050781 C 694.476562 421.050781 696.152344 422.726562 696.152344 424.792969 L 696.152344 529.0625 C 696.152344 531.128906 694.476562 532.808594 692.40625 532.808594 L 485.328125 532.808594 C 483.261719 532.808594 481.582031 531.128906 481.582031 529.0625 L 481.582031 424.792969 C 481.582031 422.726562 483.261719 421.050781 485.328125 421.050781 Z M 485.328125 421.050781 " clip-rule="nonzero"/></clipPath><clipPath id="103cfc66df"><path d="M 0.582031 0.0507812 L 215.335938 0.0507812 L 215.335938 111.808594 L 0.582031 111.808594 Z M 0.582031 0.0507812 " clip-rule="nonzero"/></clipPath><clipPath id="43eb36e31b"><path d="M 4.328125 0.0507812 L 211.40625 0.0507812 C 213.476562 0.0507812 215.152344 1.726562 215.152344 3.792969 L 215.152344 108.0625 C 215.152344 110.128906 213.476562 111.808594 211.40625 111.808594 L 4.328125 111.808594 C 2.261719 111.808594 0.582031 110.128906 0.582031 108.0625 L 0.582031 3.792969 C 0.582031 1.726562 2.261719 0.0507812 4.328125 0.0507812 Z M 4.328125 0.0507812 " clip-rule="nonzero"/></clipPath><clipPath id="56c33e73c4"><rect x="0" width="216" y="0" height="112"/></clipPath><clipPath id="7792ae4642"><path d="M 481.582031 429.949219 L 696.15625 429.949219 L 696.15625 540.03125 L 481.582031 540.03125 Z M 481.582031 429.949219 " clip-rule="nonzero"/></clipPath><clipPath id="10a09f4cd3"><path d="M 485.328125 429.949219 L 692.40625 429.949219 C 694.476562 429.949219 696.152344 431.625 696.152344 433.695312 L 696.152344 536.285156 C 696.152344 538.355469 694.476562 540.03125 692.40625 540.03125 L 485.328125 540.03125 C 483.261719 540.03125 481.582031 538.355469 481.582031 536.285156 L 481.582031 433.695312 C 481.582031 431.625 483.261719 429.949219 485.328125 429.949219 Z M 485.328125 429.949219 " clip-rule="nonzero"/></clipPath><clipPath id="f668c7aee6"><path d="M 0.582031 0.949219 L 215.15625 0.949219 L 215.15625 111.03125 L 0.582031 111.03125 Z M 0.582031 0.949219 " clip-rule="nonzero"/></clipPath><clipPath id="0e8388dfe6"><path d="M 4.328125 0.949219 L 211.40625 0.949219 C 213.476562 0.949219 215.152344 2.625 215.152344 4.695312 L 215.152344 107.285156 C 215.152344 109.355469 213.476562 111.03125 211.40625 111.03125 L 4.328125 111.03125 C 2.261719 111.03125 0.582031 109.355469 0.582031 107.285156 L 0.582031 4.695312 C 0.582031 2.625 2.261719 0.949219 4.328125 0.949219 Z M 4.328125 0.949219 " clip-rule="nonzero"/></clipPath><clipPath id="a1e25135aa"><rect x="0" width="216" y="0" height="112"/></clipPath><clipPath id="aae5997afd"><path d="M 680.113281 423.921875 L 683.855469 423.921875 L 683.855469 427.667969 L 680.113281 427.667969 Z M 680.113281 423.921875 " clip-rule="nonzero"/></clipPath><clipPath id="e9af04aa2f"><path d="M 680.859375 423.921875 L 683.109375 423.921875 C 683.519531 423.921875 683.855469 424.257812 683.855469 424.671875 L 683.855469 426.917969 C 683.855469 427.332031 683.519531 427.667969 683.109375 427.667969 L 680.859375 427.667969 C 680.449219 427.667969 680.113281 427.332031 680.113281 426.917969 L 680.113281 424.671875 C 680.113281 424.257812 680.449219 423.921875 680.859375 423.921875 Z M 680.859375 423.921875 " clip-rule="nonzero"/></clipPath><clipPath id="a8e0c442a8"><path d="M 1 2 L 4.824219 2 L 4.824219 6 L 1 6 Z M 1 2 " clip-rule="nonzero"/></clipPath><clipPath id="5d217eea2d"><rect x="0" width="5" y="0" height="7"/></clipPath><clipPath id="7e933dd558"><path d="M 0.8125 5 L 3.925781 5 L 3.925781 7 L 0.8125 7 Z M 0.8125 5 " clip-rule="nonzero"/></clipPath><clipPath id="16f5e9b93f"><rect x="0" width="4" y="0" height="8"/></clipPath><clipPath id="e452439b0f"><path d="M 0.00390625 3 L 6 3 L 6 10 L 0.00390625 10 Z M 0.00390625 3 " clip-rule="nonzero"/></clipPath><clipPath id="f8e2b98f41"><rect x="0" width="70" y="0" height="13"/></clipPath></defs><g clip-path="url(#5a06edbb5e)"><g clip-path="url(#c89e20d42e)"><g transform="matrix(1, 0, 0, 1, 481, 421)"><g clip-path="url(#56c33e73c4)"><g clip-path="url(#103cfc66df)"><g clip-path="url(#43eb36e31b)"><path fill="#545353" d="M 0.582031 0.0507812 L 215.367188 0.0507812 L 215.367188 111.808594 L 0.582031 111.808594 Z M 0.582031 0.0507812 " fill-opacity="1" fill-rule="nonzero"/></g></g></g></g></g></g><g clip-path="url(#7792ae4642)"><g clip-path="url(#10a09f4cd3)"><g transform="matrix(1, 0, 0, 1, 481, 429)"><g clip-path="url(#a1e25135aa)"><g clip-path="url(#f668c7aee6)"><g clip-path="url(#0e8388dfe6)"><path fill="#323030" d="M 0.582031 0.949219 L 215.15625 0.949219 L 215.15625 111.03125 L 0.582031 111.03125 Z M 0.582031 0.949219 " fill-opacity="1" fill-rule="nonzero"/></g></g></g></g></g></g><g clip-path="url(#aae5997afd)"><g clip-path="url(#e9af04aa2f)"><path stroke-linecap="butt" transform="matrix(0.748891, 0, 0, 0.748891, 680.112135, 423.922131)" fill="none" stroke-linejoin="miter" d="M 0.997796 -0.000341548 L 4.00224 -0.000341548 C 4.549926 -0.000341548 4.998506 0.448239 4.998506 1.00114 L 4.998506 4.000368 C 4.998506 4.55327 4.549926 5.00185 4.00224 5.00185 L 0.997796 5.00185 C 0.450111 5.00185 0.00153026 4.55327 0.00153026 4.000368 L 0.00153026 1.00114 C 0.00153026 0.448239 0.450111 -0.000341548 0.997796 -0.000341548 Z M 0.997796 -0.000341548 " stroke="#d9d9d9" stroke-width="2" stroke-opacity="1" stroke-miterlimit="4"/></g></g><g transform="matrix(1, 0, 0, 1, 686, 422)"><g clip-path="url(#5d217eea2d)"><g clip-path="url(#a8e0c442a8)"><g fill="#d9d9d9" fill-opacity="1"><g transform="translate(1.248527, 5.457807)"><g><path d="M 0.921875 0 L -0.0625 0 L 1.15625 -1.65625 L 0.03125 -3.203125 L 1.09375 -3.203125 L 1.734375 -2.1875 L 2.390625 -3.203125 L 3.359375 -3.203125 L 2.25 -1.671875 L 3.453125 0 L 2.390625 0 L 1.671875 -1.109375 Z M 0.921875 0 "/></g></g></g></g></g></g><g transform="matrix(1, 0, 0, 1, 673, 420)"><g clip-path="url(#16f5e9b93f)"><g clip-path="url(#7e933dd558)"><g fill="#d9d9d9" fill-opacity="1"><g transform="translate(0.99691, 5.586985)"><g><path d="M 2.71875 0.421875 L 0 0.421875 L 0 -0.15625 L 2.71875 -0.15625 Z M 2.71875 0.421875 "/></g></g></g></g></g></g><g transform="matrix(1, 0, 0, 1, 490, 437)"><g clip-path="url(#f8e2b98f41)"><g clip-path="url(#e452439b0f)"><g fill="#40bb79" fill-opacity="1"><g transform="translate(0.149937, 9.081009)"><g><path d="M 3.421875 0.171875 C 2.828125 0.171875 2.296875 0.0507812 1.828125 -0.1875 C 1.367188 -0.4375 1.003906 -0.789062 0.734375 -1.25 C 0.472656 -1.71875 0.34375 -2.28125 0.34375 -2.9375 C 0.34375 -3.601562 0.484375 -4.164062 0.765625 -4.625 C 1.046875 -5.082031 1.414062 -5.425781 1.875 -5.65625 C 2.34375 -5.894531 2.859375 -6.015625 3.421875 -6.015625 C 3.816406 -6.015625 4.148438 -5.992188 4.421875 -5.953125 C 4.691406 -5.910156 4.929688 -5.859375 5.140625 -5.796875 L 5.390625 -4.3125 C 5.109375 -4.414062 4.820312 -4.503906 4.53125 -4.578125 C 4.25 -4.660156 3.945312 -4.703125 3.625 -4.703125 C 3.351562 -4.703125 3.097656 -4.644531 2.859375 -4.53125 C 2.628906 -4.414062 2.441406 -4.234375 2.296875 -3.984375 C 2.148438 -3.734375 2.078125 -3.390625 2.078125 -2.953125 C 2.078125 -2.523438 2.148438 -2.175781 2.296875 -1.90625 C 2.441406 -1.644531 2.632812 -1.453125 2.875 -1.328125 C 3.125 -1.210938 3.382812 -1.15625 3.65625 -1.15625 C 3.96875 -1.15625 4.265625 -1.1875 4.546875 -1.25 C 4.835938 -1.3125 5.113281 -1.382812 5.375 -1.46875 L 5.15625 -0.140625 C 4.9375 -0.0351562 4.691406 0.0390625 4.421875 0.09375 C 4.160156 0.144531 3.828125 0.171875 3.421875 0.171875 Z M 3.421875 0.171875 "/></g></g></g></g><g fill="#40bb79" fill-opacity="1"><g transform="translate(5.864912, 9.081009)"><g><path d="M 2.71875 -3.6875 L 1.5 -2.609375 L 0.28125 -3.6875 L 1.5 -4.796875 Z M 2.71875 -0.828125 L 1.5 0.265625 L 0.28125 -0.828125 L 1.5 -1.9375 Z M 2.71875 -0.828125 "/></g></g></g><g fill="#40bb79" fill-opacity="1"><g transform="translate(8.858893, 9.081009)"><g><path d="M 1.625 -6.171875 L 4.71875 1.84375 L 3.328125 1.84375 L 0.25 -6.171875 Z M 1.625 -6.171875 "/></g></g></g><g fill="#40bb79" fill-opacity="1"><g transform="translate(13.816564, 9.081009)"><g><path d="M 3.28125 0.171875 C 2.34375 0.171875 1.648438 -0.0234375 1.203125 -0.421875 C 0.753906 -0.828125 0.53125 -1.390625 0.53125 -2.109375 L 0.53125 -5.84375 L 2.21875 -5.84375 L 2.21875 -2.109375 C 2.21875 -1.804688 2.300781 -1.566406 2.46875 -1.390625 C 2.644531 -1.210938 2.925781 -1.125 3.3125 -1.125 C 3.707031 -1.125 3.992188 -1.210938 4.171875 -1.390625 C 4.347656 -1.566406 4.4375 -1.8125 4.4375 -2.125 L 4.4375 -5.84375 L 6.03125 -5.84375 L 6.03125 -2.125 C 6.03125 -1.394531 5.804688 -0.828125 5.359375 -0.421875 C 4.921875 -0.0234375 4.226562 0.171875 3.28125 0.171875 Z M 3.28125 0.171875 "/></g></g></g><g fill="#40bb79" fill-opacity="1"><g transform="translate(20.368096, 9.081009)"><g><path d="M 2.46875 0.15625 C 2.113281 0.15625 1.78125 0.132812 1.46875 0.09375 C 1.15625 0.0507812 0.84375 0.00390625 0.53125 -0.046875 L 0.328125 -1.375 C 0.753906 -1.21875 1.132812 -1.109375 1.46875 -1.046875 C 1.8125 -0.992188 2.082031 -0.96875 2.28125 -0.96875 C 2.707031 -0.96875 2.921875 -1.0625 2.921875 -1.25 C 2.921875 -1.351562 2.859375 -1.4375 2.734375 -1.5 C 2.617188 -1.5625 2.398438 -1.625 2.078125 -1.6875 C 1.492188 -1.800781 1.0625 -1.972656 0.78125 -2.203125 C 0.5 -2.441406 0.359375 -2.765625 0.359375 -3.171875 C 0.359375 -3.609375 0.546875 -3.957031 0.921875 -4.21875 C 1.296875 -4.476562 1.835938 -4.609375 2.546875 -4.609375 C 2.878906 -4.609375 3.175781 -4.59375 3.4375 -4.5625 C 3.707031 -4.53125 3.96875 -4.488281 4.21875 -4.4375 L 4.421875 -3.15625 C 4.035156 -3.28125 3.695312 -3.367188 3.40625 -3.421875 C 3.113281 -3.472656 2.847656 -3.5 2.609375 -3.5 C 2.222656 -3.5 2.03125 -3.410156 2.03125 -3.234375 C 2.03125 -3.140625 2.09375 -3.066406 2.21875 -3.015625 C 2.34375 -2.960938 2.570312 -2.90625 2.90625 -2.84375 C 3.507812 -2.726562 3.941406 -2.550781 4.203125 -2.3125 C 4.472656 -2.070312 4.609375 -1.742188 4.609375 -1.328125 C 4.609375 -0.867188 4.421875 -0.503906 4.046875 -0.234375 C 3.671875 0.0234375 3.144531 0.15625 2.46875 0.15625 Z M 2.46875 0.15625 "/></g></g></g><g fill="#40bb79" fill-opacity="1"><g transform="translate(25.2201, 9.081009)"><g><path d="M 5.15625 -2.359375 C 5.15625 -2.242188 5.148438 -2.140625 5.140625 -2.046875 C 5.140625 -1.960938 5.132812 -1.867188 5.125 -1.765625 L 1.984375 -1.765625 C 2.046875 -1.515625 2.1875 -1.328125 2.40625 -1.203125 C 2.625 -1.085938 2.929688 -1.03125 3.328125 -1.03125 C 3.597656 -1.03125 3.851562 -1.050781 4.09375 -1.09375 C 4.332031 -1.132812 4.613281 -1.195312 4.9375 -1.28125 L 4.75 -0.1875 C 4.59375 -0.125 4.363281 -0.0507812 4.0625 0.03125 C 3.769531 0.113281 3.410156 0.15625 2.984375 0.15625 C 2.453125 0.15625 1.988281 0.0625 1.59375 -0.125 C 1.195312 -0.320312 0.882812 -0.597656 0.65625 -0.953125 C 0.4375 -1.304688 0.328125 -1.734375 0.328125 -2.234375 C 0.328125 -2.722656 0.4375 -3.144531 0.65625 -3.5 C 0.875 -3.851562 1.171875 -4.125 1.546875 -4.3125 C 1.921875 -4.507812 2.34375 -4.609375 2.8125 -4.609375 C 3.269531 -4.609375 3.675781 -4.515625 4.03125 -4.328125 C 4.382812 -4.140625 4.660156 -3.878906 4.859375 -3.546875 C 5.054688 -3.210938 5.15625 -2.816406 5.15625 -2.359375 Z M 2.796875 -3.484375 C 2.578125 -3.484375 2.394531 -3.414062 2.25 -3.28125 C 2.101562 -3.15625 2.007812 -2.953125 1.96875 -2.671875 L 3.625 -2.671875 C 3.5625 -3.210938 3.285156 -3.484375 2.796875 -3.484375 Z M 2.796875 -3.484375 "/></g></g></g><g fill="#40bb79" fill-opacity="1"><g transform="translate(30.697317, 9.081009)"><g><path d="M 2.1875 0 L 0.5625 0 L 0.5625 -4.375 L 2.078125 -4.5625 L 2.078125 -3.40625 C 2.171875 -3.78125 2.335938 -4.066406 2.578125 -4.265625 C 2.816406 -4.472656 3.164062 -4.578125 3.625 -4.578125 C 3.664062 -4.578125 3.722656 -4.570312 3.796875 -4.5625 L 3.78125 -2.9375 C 3.664062 -2.976562 3.554688 -3.007812 3.453125 -3.03125 C 3.359375 -3.050781 3.253906 -3.0625 3.140625 -3.0625 C 2.984375 -3.0625 2.832031 -3.023438 2.6875 -2.953125 C 2.539062 -2.890625 2.421875 -2.78125 2.328125 -2.625 C 2.234375 -2.46875 2.1875 -2.253906 2.1875 -1.984375 Z M 2.1875 0 "/></g></g></g><g fill="#40bb79" fill-opacity="1"><g transform="translate(34.607096, 9.081009)"><g><path d="M 2.46875 0.15625 C 2.113281 0.15625 1.78125 0.132812 1.46875 0.09375 C 1.15625 0.0507812 0.84375 0.00390625 0.53125 -0.046875 L 0.328125 -1.375 C 0.753906 -1.21875 1.132812 -1.109375 1.46875 -1.046875 C 1.8125 -0.992188 2.082031 -0.96875 2.28125 -0.96875 C 2.707031 -0.96875 2.921875 -1.0625 2.921875 -1.25 C 2.921875 -1.351562 2.859375 -1.4375 2.734375 -1.5 C 2.617188 -1.5625 2.398438 -1.625 2.078125 -1.6875 C 1.492188 -1.800781 1.0625 -1.972656 0.78125 -2.203125 C 0.5 -2.441406 0.359375 -2.765625 0.359375 -3.171875 C 0.359375 -3.609375 0.546875 -3.957031 0.921875 -4.21875 C 1.296875 -4.476562 1.835938 -4.609375 2.546875 -4.609375 C 2.878906 -4.609375 3.175781 -4.59375 3.4375 -4.5625 C 3.707031 -4.53125 3.96875 -4.488281 4.21875 -4.4375 L 4.421875 -3.15625 C 4.035156 -3.28125 3.695312 -3.367188 3.40625 -3.421875 C 3.113281 -3.472656 2.847656 -3.5 2.609375 -3.5 C 2.222656 -3.5 2.03125 -3.410156 2.03125 -3.234375 C 2.03125 -3.140625 2.09375 -3.066406 2.21875 -3.015625 C 2.34375 -2.960938 2.570312 -2.90625 2.90625 -2.84375 C 3.507812 -2.726562 3.941406 -2.550781 4.203125 -2.3125 C 4.472656 -2.070312 4.609375 -1.742188 4.609375 -1.328125 C 4.609375 -0.867188 4.421875 -0.503906 4.046875 -0.234375 C 3.671875 0.0234375 3.144531 0.15625 2.46875 0.15625 Z M 2.46875 0.15625 "/></g></g></g><g fill="#40bb79" fill-opacity="1"><g transform="translate(39.4591, 9.081009)"><g><path d="M 1.625 -6.171875 L 4.71875 1.84375 L 3.328125 1.84375 L 0.25 -6.171875 Z M 1.625 -6.171875 "/></g></g></g><g fill="#40bb79" fill-opacity="1"><g transform="translate(44.416771, 9.081009)"><g><path d="M 2.4375 -5.875 L 1.34375 -4.90625 L 0.265625 -5.875 L 1.34375 -6.84375 Z M 0.453125 1.96875 C 0.253906 1.96875 0.0664062 1.953125 -0.109375 1.921875 C -0.296875 1.898438 -0.445312 1.875 -0.5625 1.84375 L -0.765625 0.578125 C -0.554688 0.648438 -0.375 0.707031 -0.21875 0.75 C -0.0625 0.789062 0.0664062 0.8125 0.171875 0.8125 C 0.429688 0.8125 0.5625 0.664062 0.5625 0.375 L 0.5625 -4.375 L 2.1875 -4.578125 L 2.1875 0.421875 C 2.1875 0.679688 2.125 0.929688 2 1.171875 C 1.875 1.410156 1.679688 1.601562 1.421875 1.75 C 1.171875 1.894531 0.847656 1.96875 0.453125 1.96875 Z M 0.453125 1.96875 "/></g></g></g><g fill="#40bb79" fill-opacity="1"><g transform="translate(47.164191, 9.081009)"><g><path d="M 3.453125 -2.046875 L 3.453125 -4.375 L 5.078125 -4.5625 L 5.078125 0 L 3.53125 0 L 3.53125 -0.640625 C 3.394531 -0.421875 3.203125 -0.238281 2.953125 -0.09375 C 2.710938 0.0507812 2.398438 0.125 2.015625 0.125 C 1.703125 0.125 1.425781 0.0546875 1.1875 -0.078125 C 0.957031 -0.222656 0.78125 -0.414062 0.65625 -0.65625 C 0.53125 -0.894531 0.46875 -1.160156 0.46875 -1.453125 L 0.46875 -4.375 L 2.109375 -4.5625 L 2.109375 -1.828125 C 2.109375 -1.617188 2.160156 -1.453125 2.265625 -1.328125 C 2.378906 -1.210938 2.535156 -1.15625 2.734375 -1.15625 C 2.941406 -1.15625 3.113281 -1.238281 3.25 -1.40625 C 3.382812 -1.582031 3.453125 -1.796875 3.453125 -2.046875 Z M 3.453125 -2.046875 "/></g></g></g><g fill="#40bb79" fill-opacity="1"><g transform="translate(52.799914, 9.081009)"><g><path d="M 2.1875 0 L 0.5625 0 L 0.5625 -6 L 2.1875 -6.234375 Z M 2.1875 0 "/></g></g></g><g fill="#40bb79" fill-opacity="1"><g transform="translate(55.547334, 9.081009)"><g><path d="M 2.453125 -5.875 L 1.375 -4.90625 L 0.296875 -5.875 L 1.375 -6.84375 Z M 2.1875 0 L 0.5625 0 L 0.5625 -4.375 L 2.1875 -4.578125 Z M 2.1875 0 "/></g></g></g><g fill="#40bb79" fill-opacity="1"><g transform="translate(58.294754, 9.081009)"><g><path d="M 1.859375 0.125 C 1.523438 0.125 1.238281 0.0625 1 -0.0625 C 0.757812 -0.195312 0.570312 -0.375 0.4375 -0.59375 C 0.3125 -0.820312 0.25 -1.078125 0.25 -1.359375 C 0.25 -1.773438 0.394531 -2.117188 0.6875 -2.390625 C 0.988281 -2.660156 1.390625 -2.796875 1.890625 -2.796875 C 2.171875 -2.796875 2.398438 -2.757812 2.578125 -2.6875 C 2.765625 -2.613281 2.929688 -2.535156 3.078125 -2.453125 L 3.078125 -2.65625 C 3.078125 -2.914062 2.984375 -3.109375 2.796875 -3.234375 C 2.617188 -3.359375 2.390625 -3.421875 2.109375 -3.421875 C 1.816406 -3.421875 1.546875 -3.390625 1.296875 -3.328125 C 1.046875 -3.273438 0.800781 -3.210938 0.5625 -3.140625 L 0.75 -4.4375 C 1.019531 -4.488281 1.296875 -4.53125 1.578125 -4.5625 C 1.859375 -4.59375 2.171875 -4.609375 2.515625 -4.609375 C 3.210938 -4.609375 3.753906 -4.445312 4.140625 -4.125 C 4.523438 -3.800781 4.71875 -3.304688 4.71875 -2.640625 L 4.71875 0 L 3.15625 0 L 3.15625 -0.359375 C 3.050781 -0.242188 2.882812 -0.132812 2.65625 -0.03125 C 2.4375 0.0703125 2.171875 0.125 1.859375 0.125 Z M 2.40625 -0.84375 C 2.582031 -0.84375 2.742188 -0.90625 2.890625 -1.03125 C 3.035156 -1.15625 3.109375 -1.34375 3.109375 -1.59375 L 3.109375 -1.609375 C 2.878906 -1.773438 2.640625 -1.859375 2.390625 -1.859375 C 2.210938 -1.859375 2.070312 -1.8125 1.96875 -1.71875 C 1.863281 -1.632812 1.8125 -1.515625 1.8125 -1.359375 C 1.8125 -1.210938 1.863281 -1.085938 1.96875 -0.984375 C 2.070312 -0.890625 2.21875 -0.84375 2.40625 -0.84375 Z M 2.40625 -0.84375 "/></g></g></g><g fill="#40bb79" fill-opacity="1"><g transform="translate(63.507797, 9.081009)"><g><path d="M 5.171875 -2.25 L 1.34375 -0.59375 L 0.9375 -1.625 L 3.703125 -2.71875 L 0.9375 -3.828125 L 1.34375 -4.859375 L 5.171875 -3.203125 Z M 5.171875 -2.25 "/></g></g></g></g></g></svg>